<svg width="262" height="15" viewBox="0 0 262 15" fill="none" xmlns="http://www.w3.org/2000/svg">
<path d="M0 14.8736L6.73108 0.126404H8.26661L14.9977 14.8736H13.357L7.17281 1.0323H7.80385L1.61967 14.8736H0ZM2.65036 10.934L3.11313 9.66994H11.6742L12.137 10.934H2.65036Z" fill="black"/>
<path d="M21.4931 15C20.3993 15 19.3476 14.8244 18.3379 14.4733C17.3423 14.1081 16.571 13.6447 16.0241 13.0829L16.6341 11.882C17.153 12.3876 17.8471 12.816 18.7166 13.1671C19.6 13.5042 20.5255 13.6728 21.4931 13.6728C22.4186 13.6728 23.1689 13.5604 23.7438 13.3357C24.3328 13.0969 24.7605 12.7809 25.0269 12.3876C25.3074 11.9944 25.4476 11.559 25.4476 11.0815C25.4476 10.5056 25.2794 10.0421 24.9428 9.69101C24.6203 9.33989 24.1926 9.06601 23.6597 8.86938C23.1268 8.65871 22.5378 8.47612 21.8928 8.32163C21.2477 8.16713 20.6027 8.00562 19.9576 7.83708C19.3125 7.65449 18.7166 7.41573 18.1696 7.12079C17.6368 6.82584 17.2021 6.43961 16.8655 5.96208C16.543 5.47051 16.3817 4.83146 16.3817 4.04494C16.3817 3.31461 16.571 2.64747 16.9496 2.04354C17.3423 1.42556 17.9383 0.933988 18.7376 0.56882C19.5369 0.189607 20.5606 0 21.8086 0C22.636 0 23.4564 0.119382 24.2697 0.358146C25.083 0.582865 25.7842 0.898876 26.3732 1.30618L25.8473 2.54916C25.2163 2.12781 24.5431 1.81882 23.828 1.62219C23.1268 1.42556 22.4467 1.32725 21.7876 1.32725C20.9042 1.32725 20.175 1.44663 19.6 1.68539C19.0251 1.92416 18.5974 2.24719 18.3169 2.65449C18.0505 3.04775 17.9172 3.49719 17.9172 4.00281C17.9172 4.57865 18.0785 5.04213 18.401 5.39326C18.7376 5.74438 19.1723 6.01826 19.7052 6.21489C20.2521 6.41152 20.8481 6.58708 21.4931 6.74157C22.1382 6.89607 22.7762 7.06461 23.4073 7.24719C24.0523 7.42978 24.6413 7.66854 25.1742 7.96348C25.7211 8.24438 26.1558 8.6236 26.4783 9.10112C26.8149 9.57865 26.9832 10.2037 26.9832 10.9761C26.9832 11.6924 26.7868 12.3596 26.3942 12.9775C26.0015 13.5815 25.3986 14.073 24.5852 14.4522C23.7859 14.8174 22.7552 15 21.4931 15Z" fill="black"/>
<path d="M31.763 6.72051H39.5458V8.04775H31.763V6.72051ZM31.9312 13.5253H40.7868V14.8736H30.3747V0.126404H40.4713V1.47472H31.9312V13.5253Z" fill="black"/>
<path d="M48.5054 15C47.4116 15 46.3598 14.8244 45.3502 14.4733C44.3545 14.1081 43.5833 13.6447 43.0364 13.0829L43.6464 11.882C44.1652 12.3876 44.8594 12.816 45.7288 13.1671C46.6123 13.5042 47.5378 13.6728 48.5054 13.6728C49.4309 13.6728 50.1811 13.5604 50.7561 13.3357C51.345 13.0969 51.7728 12.7809 52.0392 12.3876C52.3197 11.9944 52.4599 11.559 52.4599 11.0815C52.4599 10.5056 52.2916 10.0421 51.9551 9.69101C51.6325 9.33989 51.2048 9.06601 50.6719 8.86938C50.1391 8.65871 49.5501 8.47612 48.905 8.32163C48.26 8.16713 47.6149 8.00562 46.9698 7.83708C46.3248 7.65449 45.7288 7.41573 45.1819 7.12079C44.649 6.82584 44.2143 6.43961 43.8778 5.96208C43.5552 5.47051 43.394 4.83146 43.394 4.04494C43.394 3.31461 43.5833 2.64747 43.9619 2.04354C44.3545 1.42556 44.9505 0.933988 45.7498 0.56882C46.5491 0.189607 47.5728 0 48.8209 0C49.6483 0 50.4686 0.119382 51.2819 0.358146C52.0953 0.582865 52.7964 0.898876 53.3854 1.30618L52.8595 2.54916C52.2285 2.12781 51.5554 1.81882 50.8402 1.62219C50.1391 1.42556 49.4589 1.32725 48.7999 1.32725C47.9164 1.32725 47.1872 1.44663 46.6123 1.68539C46.0373 1.92416 45.6096 2.24719 45.3291 2.65449C45.0627 3.04775 44.9295 3.49719 44.9295 4.00281C44.9295 4.57865 45.0907 5.04213 45.4133 5.39326C45.7498 5.74438 46.1845 6.01826 46.7174 6.21489C47.2643 6.41152 47.8603 6.58708 48.5054 6.74157C49.1504 6.89607 49.7885 7.06461 50.4195 7.24719C51.0646 7.42978 51.6536 7.66854 52.1864 7.96348C52.7333 8.24438 53.168 8.6236 53.4906 9.10112C53.8271 9.57865 53.9954 10.2037 53.9954 10.9761C53.9954 11.6924 53.7991 12.3596 53.4064 12.9775C53.0138 13.5815 52.4108 14.073 51.5975 14.4522C50.7981 14.8174 49.7674 15 48.5054 15Z" fill="black"/>
<path d="M63.8235 15C62.7157 15 61.685 14.8174 60.7314 14.4522C59.7919 14.073 58.9715 13.5463 58.2704 12.8722C57.5832 12.184 57.0434 11.3904 56.6507 10.4916C56.2721 9.57865 56.0828 8.58146 56.0828 7.5C56.0828 6.41854 56.2721 5.42837 56.6507 4.52949C57.0434 3.61657 57.5832 2.82303 58.2704 2.14888C58.9715 1.46067 59.7919 0.933988 60.7314 0.56882C61.671 0.189607 62.7017 0 63.8235 0C64.9313 0 65.955 0.189607 66.8946 0.56882C67.8341 0.933988 68.6475 1.45365 69.3346 2.12781C70.0357 2.80197 70.5756 3.59551 70.9543 4.50843C71.3469 5.42135 71.5432 6.41854 71.5432 7.5C71.5432 8.58146 71.3469 9.57865 70.9543 10.4916C70.5756 11.4045 70.0357 12.198 69.3346 12.8722C68.6475 13.5463 67.8341 14.073 66.8946 14.4522C65.955 14.8174 64.9313 15 63.8235 15ZM63.8235 13.6096C64.707 13.6096 65.5203 13.4621 66.2635 13.1671C67.0208 12.8581 67.6728 12.4298 68.2197 11.882C68.7807 11.3202 69.2154 10.6742 69.5239 9.94382C69.8324 9.19944 69.9867 8.38483 69.9867 7.5C69.9867 6.61517 69.8324 5.80758 69.5239 5.07725C69.2154 4.33287 68.7807 3.6868 68.2197 3.13904C67.6728 2.57725 67.0208 2.14888 66.2635 1.85393C65.5203 1.54494 64.707 1.39045 63.8235 1.39045C62.9401 1.39045 62.1197 1.54494 61.3625 1.85393C60.6052 2.14888 59.9461 2.57725 59.3852 3.13904C58.8383 3.6868 58.4036 4.33287 58.0811 5.07725C57.7726 5.80758 57.6183 6.61517 57.6183 7.5C57.6183 8.37079 57.7726 9.17837 58.0811 9.92275C58.4036 10.6671 58.8383 11.3202 59.3852 11.882C59.9461 12.4298 60.6052 12.8581 61.3625 13.1671C62.1197 13.4621 62.9401 13.6096 63.8235 13.6096Z" fill="black"/>
<path d="M75.0322 14.8736V0.126404H80.5433C81.7913 0.126404 82.8641 0.330056 83.7616 0.73736C84.659 1.13062 85.3462 1.70646 85.8229 2.46489C86.3138 3.20927 86.5592 4.11517 86.5592 5.18258C86.5592 6.22191 86.3138 7.12079 85.8229 7.87921C85.3462 8.6236 84.659 9.19944 83.7616 9.60674C82.8641 10 81.7913 10.1966 80.5433 10.1966H75.8946L76.5887 9.48034V14.8736H75.0322ZM85.0867 14.8736L81.3005 9.52247H82.9833L86.7905 14.8736H85.0867ZM76.5887 9.60674L75.8946 8.86938H80.5012C81.9736 8.86938 83.0884 8.54635 83.8457 7.90028C84.617 7.25421 85.0026 6.34831 85.0026 5.18258C85.0026 4.00281 84.617 3.08989 83.8457 2.44382C83.0884 1.79775 81.9736 1.47472 80.5012 1.47472H75.8946L76.5887 0.73736V9.60674Z" fill="black"/>
<path d="M91.6213 6.72051H99.4041V8.04775H91.6213V6.72051ZM91.7896 13.5253H100.645V14.8736H90.233V0.126404H100.33V1.47472H91.7896V13.5253Z" fill="black"/>
<path d="M108.364 15C107.27 15 106.218 14.8244 105.208 14.4733C104.213 14.1081 103.442 13.6447 102.895 13.0829L103.505 11.882C104.024 12.3876 104.718 12.816 105.587 13.1671C106.471 13.5042 107.396 13.6728 108.364 13.6728C109.289 13.6728 110.039 13.5604 110.614 13.3357C111.203 13.0969 111.631 12.7809 111.898 12.3876C112.178 11.9944 112.318 11.559 112.318 11.0815C112.318 10.5056 112.15 10.0421 111.813 9.69101C111.491 9.33989 111.063 9.06601 110.53 8.86938C109.997 8.65871 109.408 8.47612 108.763 8.32163C108.118 8.16713 107.473 8.00562 106.828 7.83708C106.183 7.65449 105.587 7.41573 105.04 7.12079C104.507 6.82584 104.073 6.43961 103.736 5.96208C103.414 5.47051 103.252 4.83146 103.252 4.04494C103.252 3.31461 103.442 2.64747 103.82 2.04354C104.213 1.42556 104.809 0.933988 105.608 0.56882C106.407 0.189607 107.431 0 108.679 0C109.507 0 110.327 0.119382 111.14 0.358146C111.954 0.582865 112.655 0.898876 113.244 1.30618L112.718 2.54916C112.087 2.12781 111.414 1.81882 110.699 1.62219C109.997 1.42556 109.317 1.32725 108.658 1.32725C107.775 1.32725 107.046 1.44663 106.471 1.68539C105.896 1.92416 105.468 2.24719 105.187 2.65449C104.921 3.04775 104.788 3.49719 104.788 4.00281C104.788 4.57865 104.949 5.04213 105.272 5.39326C105.608 5.74438 106.043 6.01826 106.576 6.21489C107.123 6.41152 107.719 6.58708 108.364 6.74157C109.009 6.89607 109.647 7.06461 110.278 7.24719C110.923 7.42978 111.512 7.66854 112.045 7.96348C112.592 8.24438 113.026 8.6236 113.349 9.10112C113.685 9.57865 113.854 10.2037 113.854 10.9761C113.854 11.6924 113.657 12.3596 113.265 12.9775C112.872 13.5815 112.269 14.073 111.456 14.4522C110.656 14.8174 109.626 15 108.364 15Z" fill="black"/>
<path d="M122.75 14.8736V0.126404H128.745C130.316 0.126404 131.69 0.442415 132.868 1.07444C134.06 1.69242 134.986 2.55618 135.645 3.66573C136.304 4.77528 136.633 6.05337 136.633 7.5C136.633 8.94663 136.304 10.2247 135.645 11.3343C134.986 12.4438 134.06 13.3146 132.868 13.9466C131.69 14.5646 130.316 14.8736 128.745 14.8736H122.75ZM124.307 13.5253H128.661C129.965 13.5253 131.094 13.2725 132.048 12.7669C133.015 12.2472 133.766 11.5379 134.298 10.639C134.831 9.72612 135.098 8.67978 135.098 7.5C135.098 6.30618 134.831 5.25983 134.298 4.36096C133.766 3.46208 133.015 2.75983 132.048 2.25421C131.094 1.73455 129.965 1.47472 128.661 1.47472H124.307V13.5253Z" fill="black"/>
<path d="M141.517 6.72051H149.3V8.04775H141.517V6.72051ZM141.685 13.5253H150.541V14.8736H140.129V0.126404H150.225V1.47472H141.685V13.5253Z" fill="black"/>
<path d="M163.764 15C162.671 15 161.619 14.8244 160.609 14.4733C159.614 14.1081 158.842 13.6447 158.295 13.0829L158.905 11.882C159.424 12.3876 160.118 12.816 160.988 13.1671C161.871 13.5042 162.797 13.6728 163.764 13.6728C164.69 13.6728 165.44 13.5604 166.015 13.3357C166.604 13.0969 167.032 12.7809 167.298 12.3876C167.579 11.9944 167.719 11.559 167.719 11.0815C167.719 10.5056 167.551 10.0421 167.214 9.69101C166.892 9.33989 166.464 9.06601 165.931 8.86938C165.398 8.65871 164.809 8.47612 164.164 8.32163C163.519 8.16713 162.874 8.00562 162.229 7.83708C161.584 7.65449 160.988 7.41573 160.441 7.12079C159.908 6.82584 159.473 6.43961 159.137 5.96208C158.814 5.47051 158.653 4.83146 158.653 4.04494C158.653 3.31461 158.842 2.64747 159.221 2.04354C159.614 1.42556 160.21 0.933988 161.009 0.56882C161.808 0.189607 162.832 0 164.08 0C164.907 0 165.728 0.119382 166.541 0.358146C167.354 0.582865 168.056 0.898876 168.645 1.30618L168.119 2.54916C167.488 2.12781 166.814 1.81882 166.099 1.62219C165.398 1.42556 164.718 1.32725 164.059 1.32725C163.176 1.32725 162.446 1.44663 161.871 1.68539C161.296 1.92416 160.869 2.24719 160.588 2.65449C160.322 3.04775 160.189 3.49719 160.189 4.00281C160.189 4.57865 160.35 5.04213 160.672 5.39326C161.009 5.74438 161.444 6.01826 161.977 6.21489C162.523 6.41152 163.119 6.58708 163.764 6.74157C164.41 6.89607 165.048 7.06461 165.679 7.24719C166.324 7.42978 166.913 7.66854 167.446 7.96348C167.992 8.24438 168.427 8.6236 168.75 9.10112C169.086 9.57865 169.255 10.2037 169.255 10.9761C169.255 11.6924 169.058 12.3596 168.666 12.9775C168.273 13.5815 167.67 14.073 166.857 14.4522C166.057 14.8174 165.027 15 163.764 15Z" fill="black"/>
<path d="M174.034 6.72051H181.817V8.04775H174.034V6.72051ZM174.203 13.5253H183.058V14.8736H172.646V0.126404H182.743V1.47472H174.203V13.5253Z" fill="black"/>
<path d="M193.134 15C192.012 15 190.974 14.8174 190.02 14.4522C189.081 14.073 188.261 13.5463 187.559 12.8722C186.872 12.198 186.332 11.4045 185.94 10.4916C185.561 9.57865 185.372 8.58146 185.372 7.5C185.372 6.41854 185.561 5.42135 185.94 4.50843C186.332 3.59551 186.879 2.80197 187.58 2.12781C188.282 1.45365 189.102 0.933988 190.042 0.56882C190.995 0.189607 192.033 0 193.155 0C194.276 0 195.3 0.175562 196.226 0.526685C197.165 0.877809 197.965 1.41152 198.624 2.12781L197.656 3.11798C197.039 2.5 196.359 2.05758 195.616 1.79073C194.872 1.52388 194.073 1.39045 193.218 1.39045C192.306 1.39045 191.465 1.54494 190.694 1.85393C189.936 2.14888 189.27 2.57725 188.695 3.13904C188.134 3.6868 187.693 4.33287 187.37 5.07725C187.062 5.80758 186.907 6.61517 186.907 7.5C186.907 8.37079 187.062 9.17837 187.37 9.92275C187.693 10.6671 188.134 11.3202 188.695 11.882C189.27 12.4298 189.936 12.8581 190.694 13.1671C191.465 13.4621 192.299 13.6096 193.197 13.6096C194.038 13.6096 194.83 13.4831 195.574 13.2303C196.331 12.9775 197.025 12.5492 197.656 11.9452L198.539 13.125C197.838 13.743 197.018 14.2135 196.078 14.5365C195.139 14.8455 194.157 15 193.134 15ZM197.046 12.9354V7.5H198.539V13.125L197.046 12.9354Z" fill="black"/>
<path d="M208.877 15C206.998 15 205.518 14.4593 204.438 13.3778C203.359 12.2963 202.819 10.6952 202.819 8.57444V0.126404H204.375V8.51124C204.375 10.2528 204.768 11.5379 205.553 12.3666C206.339 13.1952 207.446 13.6096 208.877 13.6096C210.321 13.6096 211.436 13.1952 212.221 12.3666C213.007 11.5379 213.399 10.2528 213.399 8.51124V0.126404H214.914V8.57444C214.914 10.6952 214.374 12.2963 213.294 13.3778C212.228 14.4593 210.756 15 208.877 15Z" fill="black"/>
<path d="M219.604 14.8736V0.126404H225.115C226.363 0.126404 227.436 0.330056 228.334 0.73736C229.231 1.13062 229.918 1.70646 230.395 2.46489C230.886 3.20927 231.131 4.11517 231.131 5.18258C231.131 6.22191 230.886 7.12079 230.395 7.87921C229.918 8.6236 229.231 9.19944 228.334 9.60674C227.436 10 226.363 10.1966 225.115 10.1966H220.467L221.161 9.48034V14.8736H219.604ZM229.659 14.8736L225.873 9.52247H227.555L231.363 14.8736H229.659ZM221.161 9.60674L220.467 8.86938H225.073C226.546 8.86938 227.66 8.54635 228.418 7.90028C229.189 7.25421 229.575 6.34831 229.575 5.18258C229.575 4.00281 229.189 3.08989 228.418 2.44382C227.66 1.79775 226.546 1.47472 225.073 1.47472H220.467L221.161 0.73736V9.60674Z" fill="black"/>
<path d="M241.242 15C240.134 15 239.103 14.8174 238.15 14.4522C237.21 14.073 236.39 13.5463 235.688 12.8722C235.001 12.184 234.461 11.3904 234.069 10.4916C233.69 9.57865 233.501 8.58146 233.501 7.5C233.501 6.41854 233.69 5.42837 234.069 4.52949C234.461 3.61657 235.001 2.82303 235.688 2.14888C236.39 1.46067 237.21 0.933988 238.15 0.56882C239.089 0.189607 240.12 0 241.242 0C242.349 0 243.373 0.189607 244.313 0.56882C245.252 0.933988 246.066 1.45365 246.753 2.12781C247.454 2.80197 247.994 3.59551 248.372 4.50843C248.765 5.42135 248.961 6.41854 248.961 7.5C248.961 8.58146 248.765 9.57865 248.372 10.4916C247.994 11.4045 247.454 12.198 246.753 12.8722C246.066 13.5463 245.252 14.073 244.313 14.4522C243.373 14.8174 242.349 15 241.242 15ZM241.242 13.6096C242.125 13.6096 242.938 13.4621 243.682 13.1671C244.439 12.8581 245.091 12.4298 245.638 11.882C246.199 11.3202 246.633 10.6742 246.942 9.94382C247.251 9.19944 247.405 8.38483 247.405 7.5C247.405 6.61517 247.251 5.80758 246.942 5.07725C246.633 4.33287 246.199 3.6868 245.638 3.13904C245.091 2.57725 244.439 2.14888 243.682 1.85393C242.938 1.54494 242.125 1.39045 241.242 1.39045C240.358 1.39045 239.538 1.54494 238.781 1.85393C238.023 2.14888 237.364 2.57725 236.803 3.13904C236.256 3.6868 235.822 4.33287 235.499 5.07725C235.191 5.80758 235.036 6.61517 235.036 7.5C235.036 8.37079 235.191 9.17837 235.499 9.92275C235.822 10.6671 236.256 11.3202 236.803 11.882C237.364 12.4298 238.023 12.8581 238.781 13.1671C239.538 13.4621 240.358 13.6096 241.242 13.6096Z" fill="black"/>
<path d="M256.51 15C255.416 15 254.364 14.8244 253.355 14.4733C252.359 14.1081 251.588 13.6447 251.041 13.0829L251.651 11.882C252.17 12.3876 252.864 12.816 253.733 13.1671C254.617 13.5042 255.542 13.6728 256.51 13.6728C257.435 13.6728 258.186 13.5604 258.761 13.3357C259.35 13.0969 259.777 12.7809 260.044 12.3876C260.324 11.9944 260.464 11.559 260.464 11.0815C260.464 10.5056 260.296 10.0421 259.96 9.69101C259.637 9.33989 259.209 9.06601 258.677 8.86938C258.144 8.65871 257.555 8.47612 256.91 8.32163C256.265 8.16713 255.619 8.00562 254.974 7.83708C254.329 7.65449 253.733 7.41573 253.186 7.12079C252.654 6.82584 252.219 6.43961 251.882 5.96208C251.56 5.47051 251.399 4.83146 251.399 4.04494C251.399 3.31461 251.588 2.64747 251.966 2.04354C252.359 1.42556 252.955 0.933988 253.754 0.56882C254.554 0.189607 255.577 0 256.825 0C257.653 0 258.473 0.119382 259.287 0.358146C260.1 0.582865 260.801 0.898876 261.39 1.30618L260.864 2.54916C260.233 2.12781 259.56 1.81882 258.845 1.62219C258.144 1.42556 257.464 1.32725 256.804 1.32725C255.921 1.32725 255.192 1.44663 254.617 1.68539C254.042 1.92416 253.614 2.24719 253.334 2.65449C253.067 3.04775 252.934 3.49719 252.934 4.00281C252.934 4.57865 253.095 5.04213 253.418 5.39326C253.754 5.74438 254.189 6.01826 254.722 6.21489C255.269 6.41152 255.865 6.58708 256.51 6.74157C257.155 6.89607 257.793 7.06461 258.424 7.24719C259.069 7.42978 259.658 7.66854 260.191 7.96348C260.738 8.24438 261.173 8.6236 261.495 9.10112C261.832 9.57865 262 10.2037 262 10.9761C262 11.6924 261.804 12.3596 261.411 12.9775C261.018 13.5815 260.415 14.073 259.602 14.4522C258.803 14.8174 257.772 15 256.51 15Z" fill="black"/>
</svg>
