<svg width="262" height="58" viewBox="0 0 262 58" fill="none" xmlns="http://www.w3.org/2000/svg">
<path d="M9.21396 8.86111H0V0.805555H27.2413V8.86111H18.0273V57.1944H9.21396V8.86111Z" fill="#4B4B4A"/>
<path d="M31.5084 0.805555H44.5681C49.1083 0.805555 52.42 1.87963 54.5032 4.02778C56.5863 6.12222 57.6279 9.37129 57.6279 13.775V17.2389C57.6279 23.0926 55.705 26.7981 51.8592 28.3556V28.5167C53.9958 29.1611 55.4913 30.4768 56.346 32.4639C57.254 34.4509 57.708 37.1093 57.708 40.4389V50.3472C57.708 51.9583 57.7615 53.2741 57.8683 54.2944C57.9751 55.2611 58.2422 56.2278 58.6695 57.1944H49.6959C49.3754 56.2815 49.1618 55.4222 49.0549 54.6167C48.9481 53.8111 48.8947 52.3611 48.8947 50.2667V39.9556C48.8947 37.3778 48.4674 35.5787 47.6127 34.5583C46.8115 33.538 45.3961 33.0278 43.3663 33.0278H40.3217V57.1944H31.5084V0.805555ZM43.5266 24.9722C45.2892 24.9722 46.5979 24.5157 47.4525 23.6028C48.3605 22.6898 48.8146 21.1593 48.8146 19.0111V14.6611C48.8146 12.6204 48.4407 11.1435 47.6929 10.2306C46.9985 9.31759 45.8768 8.86111 44.3278 8.86111H40.3217V24.9722H43.5266Z" fill="#4B4B4A"/>
<path d="M70.6332 0.805555H82.5713L91.7052 57.1944H82.8918L81.2894 45.9972V46.1583H71.2742L69.6718 57.1944H61.4994L70.6332 0.805555ZM80.2478 38.5056L76.3219 10.6333H76.1616L72.3158 38.5056H80.2478Z" fill="#4B4B4A"/>
<path d="M95.981 0.805555H107.038L115.611 34.5583H115.771V0.805555H123.623V57.1944H114.569L103.993 16.0306H103.833V57.1944H95.981V0.805555Z" fill="#4B4B4A"/>
<path d="M141.631 58C137.358 58 134.126 56.7917 131.936 54.375C129.746 51.9046 128.651 48.387 128.651 43.8222V40.6H136.984V44.4667C136.984 48.1185 138.506 49.9444 141.551 49.9444C143.046 49.9444 144.168 49.5148 144.916 48.6556C145.717 47.7426 146.118 46.2926 146.118 44.3056C146.118 41.9426 145.583 39.875 144.515 38.1028C143.447 36.2768 141.471 34.1018 138.586 31.5778C134.954 28.3556 132.417 25.4556 130.975 22.8778C129.532 20.2463 128.811 17.2926 128.811 14.0167C128.811 9.55926 129.933 6.12222 132.176 3.70556C134.42 1.23519 137.678 0 141.951 0C146.171 0 149.349 1.23519 151.486 3.70556C153.676 6.12222 154.771 9.61296 154.771 14.1778V16.5139H146.438V13.6139C146.438 11.6806 146.064 10.2843 145.316 9.425C144.569 8.51204 143.474 8.05556 142.031 8.05556C139.094 8.05556 137.625 9.85463 137.625 13.4528C137.625 15.4935 138.159 17.4 139.227 19.1722C140.349 20.9444 142.352 23.0926 145.236 25.6167C148.922 28.8389 151.459 31.7657 152.848 34.3972C154.237 37.0287 154.931 40.1167 154.931 43.6611C154.931 48.2796 153.783 51.8241 151.486 54.2944C149.242 56.7648 145.957 58 141.631 58Z" fill="#4B4B4A"/>
<path d="M179.626 0.805555H191.565L200.698 57.1944H191.885L190.283 45.9972V46.1583H180.267L178.665 57.1944H170.493L179.626 0.805555ZM189.241 38.5056L185.315 10.6333H185.155L181.309 38.5056H189.241Z" fill="#4B4B4A"/>
<path d="M204.974 0.805555H217.954C222.334 0.805555 225.619 1.98704 227.809 4.35C229.999 6.71296 231.094 10.1769 231.094 14.7417V20.3C231.094 24.8648 229.999 28.3287 227.809 30.6917C225.619 33.0546 222.334 34.2361 217.954 34.2361H213.788V57.1944H204.974V0.805555ZM217.954 26.1806C219.396 26.1806 220.464 25.7778 221.159 24.9722C221.907 24.1667 222.28 22.7972 222.28 20.8639V14.1778C222.28 12.2444 221.907 10.875 221.159 10.0694C220.464 9.26389 219.396 8.86111 217.954 8.86111H213.788V26.1806H217.954Z" fill="#4B4B4A"/>
<path d="M235.88 0.805555H248.86C253.24 0.805555 256.525 1.98704 258.715 4.35C260.905 6.71296 262 10.1769 262 14.7417V20.3C262 24.8648 260.905 28.3287 258.715 30.6917C256.525 33.0546 253.24 34.2361 248.86 34.2361H244.694V57.1944H235.88V0.805555ZM248.86 26.1806C250.302 26.1806 251.371 25.7778 252.065 24.9722C252.813 24.1667 253.187 22.7972 253.187 20.8639V14.1778C253.187 12.2444 252.813 10.875 252.065 10.0694C251.371 9.26389 250.302 8.86111 248.86 8.86111H244.694V26.1806H248.86Z" fill="#4B4B4A"/>
</svg>
